<svg xmlns="http://www.w3.org/2000/svg" width="30.453" height="25.619" viewBox="0 0 30.453 25.619"><defs><style>.a{fill:#5d5d5d;}</style></defs><path class="a" d="M3.175,11a2.175,2.175,0,0,0,0,4.35.725.725,0,0,0,0-1.45.725.725,0,1,1,0-1.45h26.1a.725.725,0,1,1,0,1.45.725.725,0,1,0,0,1.45,2.175,2.175,0,1,0,0-4.35Zm2.9,2.9a.712.712,0,0,0-.725.725V31.3a.725.725,0,0,0,1.45,0V15.35H25.652v18.8l-1.184-1.184a.7.7,0,0,0-1.015,0l-1.909,1.909-1.909-1.909a.7.7,0,0,0-1.015,0L16.71,34.879,14.8,32.969a.7.7,0,0,0-1.015,0l-1.909,1.909L9.966,32.969a.7.7,0,0,0-1.015,0L7.042,34.879l-.459-.459a.718.718,0,1,0-1.015,1.015l.967.967a.7.7,0,0,0,1.015,0l1.909-1.909L11.368,36.4a.7.7,0,0,0,1.015,0l1.909-1.909L16.2,36.4a.7.7,0,0,0,1.015,0l1.909-1.909L21.036,36.4a.7.7,0,0,0,1.015,0l1.909-1.909L25.87,36.4a.7.7,0,0,0,.507.218.869.869,0,0,0,.266-.048.767.767,0,0,0,.459-.677V14.625a.712.712,0,0,0-.725-.725Zm4.834,6.042a.725.725,0,0,0,0,1.45H21.543a.725.725,0,0,0,0-1.45Zm0,3.625a.725.725,0,0,0,0,1.45H21.543a.725.725,0,0,0,0-1.45Zm9.667,3.625a.725.725,0,0,0,0,1.45h.967a.725.725,0,0,0,0-1.45Z" transform="translate(-1 -11)"/></svg>