<svg xmlns="http://www.w3.org/2000/svg" width="43" height="43" viewBox="0 0 43 43"><defs><style>.a{fill:#70e8a1;}</style></defs><path class="a" d="M12,3A5.956,5.956,0,0,0,7.5,4.91,6.13,6.13,0,0,0,6,9a6.13,6.13,0,0,0,1.5,4.09A5.956,5.956,0,0,0,12,15a5.956,5.956,0,0,0,4.5-1.91A6.13,6.13,0,0,0,18,9a6.13,6.13,0,0,0-1.5-4.09A5.956,5.956,0,0,0,12,3ZM26,3a5.956,5.956,0,0,0-4.5,1.91A6.13,6.13,0,0,0,20,9a6.13,6.13,0,0,0,1.5,4.09,6.246,6.246,0,0,0,8.992,0A6.13,6.13,0,0,0,32,9a6.13,6.13,0,0,0-1.5-4.09A5.956,5.956,0,0,0,26,3ZM12,6a2.764,2.764,0,0,1,2.254.9A3.193,3.193,0,0,1,15,9a3.193,3.193,0,0,1-.746,2.1A2.764,2.764,0,0,1,12,12a2.764,2.764,0,0,1-2.254-.9A3.193,3.193,0,0,1,9,9a3.193,3.193,0,0,1,.746-2.1A2.764,2.764,0,0,1,12,6ZM26,6a2.764,2.764,0,0,1,2.254.9A3.193,3.193,0,0,1,29,9a3.193,3.193,0,0,1-.746,2.1A2.764,2.764,0,0,1,26,12a2.764,2.764,0,0,1-2.254-.9A3.193,3.193,0,0,1,23,9a3.193,3.193,0,0,1,.746-2.1A2.764,2.764,0,0,1,26,6ZM6.5,17A3.543,3.543,0,0,0,3,20.5V30a8.963,8.963,0,0,0,9,9,9.229,9.229,0,0,0,5.6-1.9A10.141,10.141,0,0,1,16,34.5,6.161,6.161,0,0,1,12,36a6.018,6.018,0,0,1-6-6V20.5a.472.472,0,0,1,.5-.5H15a5.329,5.329,0,0,1,1.2-3Zm14,0A3.543,3.543,0,0,0,17,20.5V30a9.041,9.041,0,0,0,5.4,8.3A18.6,18.6,0,0,1,22,35v-.5A6.11,6.11,0,0,1,20,30V20.5a.472.472,0,0,1,.5-.5h11a.472.472,0,0,1,.5.5v1.9a15.439,15.439,0,0,1,3-.4V20.5A3.543,3.543,0,0,0,31.5,17ZM35,24A11,11,0,1,0,46,35,10.968,10.968,0,0,0,35,24Zm-1,4a.945.945,0,0,1,1,1v6h5a1,1,0,0,1,0,2H34a.945.945,0,0,1-1-1V29A.945.945,0,0,1,34,28Z" transform="translate(-3 -3)"/></svg>