<svg xmlns="http://www.w3.org/2000/svg" width="29.386" height="29.386" viewBox="0 0 29.386 29.386"><defs><style>.a{fill:#fff;}</style></defs><path class="a" d="M4.939,2A2.961,2.961,0,0,0,2,4.939L2,9.312c0-.111,0-.1,0,.034a10.306,10.306,0,0,0,6.486,9.548,4.391,4.391,0,0,0,2.33,1.937v4.678a5.9,5.9,0,0,0,5.877,5.877H22.57a5.9,5.9,0,0,0,5.877-5.877v-.255a4.412,4.412,0,1,0-2.939,0v.258a2.916,2.916,0,0,1-2.939,2.939H16.693a2.916,2.916,0,0,1-2.939-2.939V20.831a4.391,4.391,0,0,0,2.33-1.937A10.306,10.306,0,0,0,22.57,9.347V4.939A2.961,2.961,0,0,0,19.632,2H16.693V4.939h2.939V9.347a7.347,7.347,0,0,1-14.693,0c0,.111,0,.1,0-.034l0-4.373H7.877V2Z" transform="translate(-2 -2)"/></svg>