<svg xmlns="http://www.w3.org/2000/svg" width="27.875" height="29.213" viewBox="0 0 27.875 29.213"><defs><style>.a{fill:#5d5d5d;}</style></defs><path class="a" d="M17.525.978a.952.952,0,0,0-.937.965v1.9a.951.951,0,1,0,1.9,0v-1.9a.952.952,0,0,0-.966-.965ZM13.719,2.247a.952.952,0,0,0-.937.965v1.9a.951.951,0,1,0,1.9,0v-1.9a.952.952,0,0,0-.966-.965Zm7.612,0a.952.952,0,0,0-.937.965v1.9a.951.951,0,1,0,1.9,0v-1.9a.952.952,0,0,0-.966-.965ZM17.648,6.066a4.232,4.232,0,0,0-3.857,3.013h-.659a.793.793,0,1,0,0,1.586h.311c-.012.157-.02.316-.02.476s.007.318.02.476h-.311a.793.793,0,1,0,0,1.586h.659a4.232,4.232,0,0,0,3.857,3.013,4.223,4.223,0,0,0,3.806-2.441.951.951,0,1,0-1.714-.828,2.153,2.153,0,0,1-2.092,1.365,2.18,2.18,0,0,1-1.737-1.11h.5a.793.793,0,1,0,0-1.586H15.363a4.186,4.186,0,0,1-.037-.476,4.186,4.186,0,0,1,.037-.476h1.043a.793.793,0,1,0,0-1.586h-.5a2.18,2.18,0,0,1,1.737-1.11A2.153,2.153,0,0,1,19.74,9.335a.951.951,0,1,0,1.714-.828A4.223,4.223,0,0,0,17.648,6.066Zm9.479,9.527a3.394,3.394,0,0,0-1.985.733c-.643.478-2.579,1.923-4.254,3.174a2.862,2.862,0,0,0-2.713-2.017H15.388a14.36,14.36,0,0,1-3.329-.3A10.553,10.553,0,0,0,9.5,16.85a7.424,7.424,0,0,0-5.539,3.039A14.344,14.344,0,0,0,2.085,22.8a.952.952,0,1,0,1.732.789,12.462,12.462,0,0,1,1.606-2.483A5.653,5.653,0,0,1,9.5,18.752a8.412,8.412,0,0,1,2.163.3,16.766,16.766,0,0,0,3.724.338h2.786a.953.953,0,0,1,.616,1.679l-.026.02q-.027.021-.053.045h0a.96.96,0,0,1-.535.159h-4.44a.951.951,0,1,0,0,1.9h4.44a2.825,2.825,0,0,0,1.612-.508h0a.952.952,0,0,0,.114-.073s5.424-4.05,6.374-4.756h0a1.54,1.54,0,0,1,.867-.357.727.727,0,0,1,.584.266.934.934,0,0,1,.007,1.328c-3.4,2.856-5.534,4.76-6.945,5.875-1.429,1.129-2.029,1.4-2.615,1.4-2.317,0-4.884-.634-7.612-.634a4.1,4.1,0,0,0-3.3,1.649,4.964,4.964,0,0,0-.8,1.609.952.952,0,1,0,1.846.461,2.962,2.962,0,0,1,.472-.928,2.012,2.012,0,0,1,1.777-.888c2.415,0,4.97.634,7.612.634,1.206,0,2.274-.606,3.795-1.808,1.5-1.186,3.611-3.07,6.987-5.909a.952.952,0,0,0,.116-.1s.006-.01.01-.015l0,0,.033-.035a.951.951,0,0,0,.209-.338,2.832,2.832,0,0,0-.255-3.651A2.753,2.753,0,0,0,27.126,15.593Z" transform="translate(-1.999 -0.978)"/></svg>