<svg xmlns="http://www.w3.org/2000/svg" xmlns:xlink="http://www.w3.org/1999/xlink" width="353" height="182.642" viewBox="0 0 353 182.642"><defs><style>.a{fill:#6653a7;}.b{fill:#564495;}.c,.g{fill:none;}.c{stroke:#6653a7;stroke-width:10px;}.d{fill:#4a3789;}.e{clip-path:url(#a);}.f{stroke:none;}</style><clipPath id="a"><path class="a" d="M22.992,0a4.207,4.207,0,0,0-4.2,4.2V8.4H6.2A4.058,4.058,0,0,0,2,12.6V96.565a4.058,4.058,0,0,0,4.2,4.2H63.042a24.844,24.844,0,0,1-3.05-4.2H6.2V31.488H94.366v30.7a24.89,24.89,0,0,1,4.2,3.059V12.6a4.058,4.058,0,0,0-4.2-4.2h-12.6V4.2a4.207,4.207,0,0,0-4.2-4.2h-4.2a4.207,4.207,0,0,0-4.2,4.2V8.4H31.389V4.2a4.207,4.207,0,0,0-4.2-4.2Zm0,4.2h4.2v12.6h-4.2Zm50.382,0h4.2v12.6h-4.2ZM6.2,12.6h12.6v4.2a4.207,4.207,0,0,0,4.2,4.2h4.2a4.207,4.207,0,0,0,4.2-4.2V12.6H69.175v4.2a4.207,4.207,0,0,0,4.2,4.2h4.2a4.207,4.207,0,0,0,4.2-4.2V12.6h12.6V27.29H6.2Zm12.6,27.29V88.168H56.965a24.447,24.447,0,0,1-.385-4.2h-4.2v-10.5H58.9a25.2,25.2,0,0,1,2.452-4.2H52.382v-10.5h10.5v8.586a25.033,25.033,0,0,1,4.2-3.813V58.778H81.771V39.885Zm4.2,4.2h10.5v10.5h-10.5Zm14.695,0h10.5v10.5h-10.5Zm14.695,0h10.5v10.5h-10.5Zm14.695,0h10.5v10.5h-10.5ZM22.992,58.778h10.5v10.5h-10.5Zm14.695,0h10.5v10.5h-10.5Zm44.084,4.2a20.992,20.992,0,1,0,20.992,20.992A21.012,21.012,0,0,0,81.771,62.977Zm0,4.2A16.794,16.794,0,1,1,64.977,83.969,16.816,16.816,0,0,1,81.771,67.175Zm0,4.4a1.984,1.984,0,0,0-2.1,2.1V81.87H71.48a2.1,2.1,0,0,0,0,4.2h8.192V94.26a2.1,2.1,0,1,0,4.2,0V86.068h8.192a2.1,2.1,0,0,0,0-4.2H83.87V73.678A1.984,1.984,0,0,0,81.771,71.579ZM22.992,73.473h10.5v10.5h-10.5Zm14.695,0h10.5v10.5h-10.5Z" transform="matrix(0.985, -0.174, 0.174, 0.985, 71.072, 295.623)"/></clipPath></defs><g transform="translate(-12 -216)"><rect class="b" width="353" height="157" rx="25" transform="translate(12 216)"/><g class="c" transform="translate(51 220)"><circle class="f" cx="32.5" cy="32.5" r="32.5"/><circle class="g" cx="32.5" cy="32.5" r="27.5"/></g><g class="c" transform="translate(21 313)"><circle class="f" cx="23.5" cy="23.5" r="23.5"/><circle class="g" cx="23.5" cy="23.5" r="18.5"/></g><circle class="d" cx="12" cy="12" r="12" transform="translate(25 261)"/><circle class="d" cx="7" cy="7" r="7" transform="translate(202 354)"/><g class="e"><path class="a" d="M25,0H328a25,25,0,0,1,25,25V132a25,25,0,0,1-25,25H25A25,25,0,0,1,0,132V25A25,25,0,0,1,25,0Z" transform="translate(12 216)"/></g></g></svg>