<svg xmlns="http://www.w3.org/2000/svg" width="394" height="98.231" viewBox="0 0 394 98.231"><defs><style>.a,.d{fill:none;}.a{stroke:#aef2c8;stroke-width:3px;}.b{fill:#aef2c8;}.c{stroke:none;}</style></defs><g transform="translate(7 -11.859)"><g class="a" transform="matrix(0.921, -0.391, 0.391, 0.921, 61.576, 60.172)"><rect class="c" width="22" height="22"/><rect class="d" x="1.5" y="1.5" width="19" height="19"/></g><g class="a" transform="matrix(0.995, 0.105, -0.105, 0.995, 192.068, 93.145)"><rect class="c" width="15.417" height="15.417"/><rect class="d" x="1.5" y="1.5" width="12.417" height="12.417"/></g><g class="a" transform="translate(-7 81)"><circle class="c" cx="12" cy="12" r="12"/><circle class="d" cx="12" cy="12" r="10.5"/></g><g class="a" transform="translate(363 21)"><circle class="c" cx="12" cy="12" r="12"/><circle class="d" cx="12" cy="12" r="10.5"/></g><path class="b" d="M17.96,2.15a4.028,4.028,0,0,0-2.9,1.18L5.925,12.463a2.437,2.437,0,0,0-.517,2.675h0a.557.557,0,0,1-.092.586l-.007.009L3.483,17.912h0a2,2,0,0,0,.1,2.711l.08.079a2,2,0,0,0,2.794.022l0,0L8.5,18.746l0,0a.556.556,0,0,1,.526-.141l.157.039h0a2.436,2.436,0,0,0,2.279-.609s0,0,0,0l9.257-8.926A4.044,4.044,0,0,0,17.96,2.15Zm-.014,1.318A2.726,2.726,0,0,1,19.8,8.151l-9.257,8.926a1.1,1.1,0,0,1-1.036.277l-.157-.04a1.847,1.847,0,0,0-1.416.275L7.7,17.352,18.295,6.757a.664.664,0,1,0-.939-.939L6.762,16.413l-.245-.245a1.838,1.838,0,0,0,.112-1.552A1.1,1.1,0,0,1,6.865,13.4l1.708-1.709.375.375a.664.664,0,1,0,.939-.939l-.375-.375,1.717-1.717.375.375a.664.664,0,1,0,.939-.939L12.167,8.1l1.717-1.717.375.375a.664.664,0,1,0,.939-.939l-.375-.375L16,4.269A2.706,2.706,0,0,1,17.946,3.468ZM5.748,17.276,6.91,18.439l-1.38,1.33v0a.655.655,0,0,1-.932-.007l-.079-.08a.654.654,0,0,1-.033-.9l.007-.009Z" transform="translate(96 80.949)"/><path class="b" d="M17.96,2.15a4.028,4.028,0,0,0-2.9,1.18L5.925,12.463a2.437,2.437,0,0,0-.517,2.675h0a.557.557,0,0,1-.092.586l-.007.009L3.483,17.912h0a2,2,0,0,0,.1,2.711l.08.079a2,2,0,0,0,2.794.022l0,0L8.5,18.746l0,0a.556.556,0,0,1,.526-.141l.157.039h0a2.436,2.436,0,0,0,2.279-.609s0,0,0,0l9.257-8.926A4.044,4.044,0,0,0,17.96,2.15Zm-.014,1.318A2.726,2.726,0,0,1,19.8,8.151l-9.257,8.926a1.1,1.1,0,0,1-1.036.277l-.157-.04a1.847,1.847,0,0,0-1.416.275L7.7,17.352,18.295,6.757a.664.664,0,1,0-.939-.939L6.762,16.413l-.245-.245a1.838,1.838,0,0,0,.112-1.552A1.1,1.1,0,0,1,6.865,13.4l1.708-1.709.375.375a.664.664,0,1,0,.939-.939l-.375-.375,1.717-1.717.375.375a.664.664,0,1,0,.939-.939L12.167,8.1l1.717-1.717.375.375a.664.664,0,1,0,.939-.939l-.375-.375L16,4.269A2.706,2.706,0,0,1,17.946,3.468ZM5.748,17.276,6.91,18.439l-1.38,1.33v0a.655.655,0,0,1-.932-.007l-.079-.08a.654.654,0,0,1-.033-.9l.007-.009Z" transform="matrix(0.839, 0.545, -0.545, 0.839, 232.394, 39.042)"/><path class="b" d="M10.408,0a1.084,1.084,0,0,0-.434,2.077v.772l-.5-.591A3.688,3.688,0,0,0,5.6,1.094L.464,2.629a.651.651,0,0,0-.1,1.205,15.824,15.824,0,0,0,9.615.988V8.242A11.524,11.524,0,0,0,7.206,8.6h0a.9.9,0,0,1-1.132-.738h0a.855.855,0,0,1,.387-.784,2.128,2.128,0,0,0,1.129.293c.838,0,1.518-.389,1.518-.867,0-.437-.566-.794-1.3-.855V5.638H6.939A2.182,2.182,0,0,0,4.775,7.945a2.194,2.194,0,0,0,2.69,1.93,1.627,1.627,0,0,0-.092.534,1.974,1.974,0,0,0,1,1.622c.018.011.042.015.06.026a1.987,1.987,0,0,0-.626,1.387,2.019,2.019,0,0,0,.734,1.518,1.934,1.934,0,0,0-.055,2.989A1.83,1.83,0,0,0,7.806,19.3a.651.651,0,1,0,1.3,0c0-.019.024-.519.867-.627v1.711a.434.434,0,1,0,.867,0V18.692c.847.142.867.606.867.606a.651.651,0,1,0,1.3,0,1.766,1.766,0,0,0-.7-1.332,1.936,1.936,0,0,0-.038-3.005,2.019,2.019,0,0,0,.734-1.518,1.987,1.987,0,0,0-.626-1.387c.018-.011.042-.015.06-.026a1.974,1.974,0,0,0,1-1.622,1.634,1.634,0,0,0-.133-.634c.163.031.307.062.427.091a2.2,2.2,0,0,0,2.738-1.921,2.182,2.182,0,0,0-2.164-2.307h-.867v.013c-.735.061-1.3.418-1.3.855,0,.479.68.867,1.518.867a2.128,2.128,0,0,0,1.129-.293.856.856,0,0,1,.387.784.9.9,0,0,1-1.132.738h0a12.853,12.853,0,0,0-3.2-.368V4.822a15.827,15.827,0,0,0,9.615-.988.651.651,0,0,0-.1-1.205L15.219,1.094a3.689,3.689,0,0,0-3.881,1.164l-.5.591V2.077A1.084,1.084,0,0,0,10.408,0ZM6.663,2.24a2.381,2.381,0,0,1,1.819.854l.489.583a14.052,14.052,0,0,1-6.2-.379l3.2-.956A2.39,2.39,0,0,1,6.663,2.24Zm7.491,0a2.388,2.388,0,0,1,.692.1l3.2.956a14.052,14.052,0,0,1-6.2.379l.489-.583a2.385,2.385,0,0,1,1.819-.854ZM10.842,9.6c.161.021.323.056.484.091a2.028,2.028,0,0,1,.42.19c.305.194.4.381.4.524s-.092.33-.4.524a2.368,2.368,0,0,1-.9.309Zm-.867.017v1.621a2.368,2.368,0,0,1-.9-.309c-.305-.194-.4-.381-.4-.524s.092-.33.4-.524a1.975,1.975,0,0,1,.369-.173C9.615,9.674,9.793,9.643,9.975,9.621Zm0,2.993v1.66c-.682-.116-.867-.5-.867-.83S9.293,12.73,9.975,12.614Zm.867,0c.682.116.867.5.867.83s-.186.714-.867.83ZM9.975,15.65v1.66c-.682-.116-.867-.5-.867-.83S9.293,15.766,9.975,15.65Zm.867,0c.682.116.867.5.867.83s-.186.714-.867.83Z" transform="translate(158.608 20.109) rotate(13)"/><path class="b" d="M6.567,2a1.783,1.783,0,0,0-1.543.892h-.24A1.8,1.8,0,0,0,3,4.675v5.35a7.147,7.147,0,0,0,4.5,6.622,2.66,2.66,0,0,0,1.745,2.132v.164a5.364,5.364,0,0,0,5.35,5.35h2.675a5.364,5.364,0,0,0,5.35-5.35V15.221a2.678,2.678,0,1,0-1.783,0v3.724a3.554,3.554,0,0,1-3.567,3.567H14.593a3.554,3.554,0,0,1-3.567-3.567v-.164a2.66,2.66,0,0,0,1.745-2.132,7.147,7.147,0,0,0,4.5-6.622V4.675a1.8,1.8,0,0,0-1.783-1.783h-.242a1.782,1.782,0,1,0,0,1.783h.24v5.35a5.35,5.35,0,0,1-10.7,0V4.675h.242A1.782,1.782,0,1,0,6.567,2Z" transform="translate(294.978 86.232) rotate(-19)"/><path class="b" d="M6.1,2a1.551,1.551,0,0,0-1.342.775H4.551A1.562,1.562,0,0,0,3,4.326V8.977a6.213,6.213,0,0,0,3.91,5.757,2.313,2.313,0,0,0,1.517,1.853v.142a4.664,4.664,0,0,0,4.652,4.652H15.4a4.664,4.664,0,0,0,4.652-4.652V13.494a2.328,2.328,0,1,0-1.551,0V16.73a3.09,3.09,0,0,1-3.1,3.1H13.079a3.09,3.09,0,0,1-3.1-3.1v-.142a2.313,2.313,0,0,0,1.517-1.853A6.213,6.213,0,0,0,15.4,8.977V4.326a1.562,1.562,0,0,0-1.551-1.551h-.21a1.549,1.549,0,1,0,0,1.551h.209V8.977a4.652,4.652,0,0,1-9.3,0V4.326h.21A1.55,1.55,0,1,0,6.1,2Z" transform="matrix(0.927, 0.375, -0.375, 0.927, 34.434, 8.88)"/></g></svg>